<?xml version="1.0" encoding="UTF-8"?>
<svg width="40px" height="40px" viewBox="0 0 40 40" version="1.1" xmlns="http://www.w3.org/2000/svg" xmlns:xlink="http://www.w3.org/1999/xlink">
    <!-- Generator: sketchtool 55.2 (78181) - https://sketchapp.com -->
    <title>EC7DDBD1-1032-44F2-ABE2-77E0DDDE55BE@3x</title>
    <desc>Created with sketchtool.</desc>
    <g id="DISCOVERY" stroke="none" stroke-width="1" fill="none" fill-rule="evenodd">
        <g id="About-Oakam" transform="translate(-215.000000, -197.000000)" fill="#00BABA" fill-rule="nonzero">
            <g id="ManagingLoans_Icon" transform="translate(215.000000, 197.000000)">
                <path d="M21.4285714,18.5714286 L40,18.5714286 L40,5.71428571 C40,2.55837286 37.4416271,0 34.2857143,0 L21.4285714,0 L21.4285714,18.5714286 Z M26.4285714,8.57142857 L35,8.57142857 C35.7889782,8.57142857 36.4285714,9.21102179 36.4285714,10 C36.4285714,10.7889782 35.7889782,11.4285714 35,11.4285714 L26.4285714,11.4285714 C25.6395932,11.4285714 25,10.7889782 25,10 C25,9.21102179 25.6395932,8.57142857 26.4285714,8.57142857 Z M18.5714286,21.4285714 L0,21.4285714 L0,34.2857143 C0,37.4416271 2.55837286,40 5.71428571,40 L18.5714286,40 L18.5714286,21.4285714 Z M13.1428571,34.5714286 C12.5873664,35.1159184 11.6983479,35.1159184 11.1428571,34.5714286 L9.28571429,32.7142857 L7.42857143,34.5714286 C7.09318503,35.0186104 6.52779677,35.2291019 5.98162961,35.1101184 C5.43546244,34.9911349 5.00886513,34.5645376 4.88988162,34.0183704 C4.77089811,33.4722032 4.98138957,32.906815 5.42857143,32.5714286 L7.28571429,30.7142857 L5.42857143,28.8571429 C4.98138957,28.5217565 4.77089811,27.9563682 4.88988162,27.410201 C5.00886513,26.8640339 5.43546244,26.4374366 5.98162961,26.318453 C6.52779677,26.1994695 7.09318503,26.409961 7.42857143,26.8571429 L9.28571429,28.7142857 L11.1428571,26.8571429 C11.7116004,26.4305854 12.5074498,26.4871447 13.0101525,26.9898475 C13.5128553,27.4925502 13.5694146,28.2883996 13.1428571,28.8571429 L11.2857143,30.7142857 L13.1428571,32.5714286 C13.687347,33.1269193 13.687347,34.0159378 13.1428571,34.5714286 L13.1428571,34.5714286 Z" id="Shape"></path>
                <path d="M18.5714286,18.5714286 L18.5714286,0 L5.71428571,0 C2.55837286,0 0,2.55837286 0,5.71428571 L0,18.5714286 L18.5714286,18.5714286 Z M5,7.85714286 L7.85714286,7.85714286 L7.85714286,5 C7.85714286,4.21102179 8.49673607,3.57142857 9.28571429,3.57142857 C10.0746925,3.57142857 10.7142857,4.21102179 10.7142857,5 L10.7142857,7.85714286 L13.5714286,7.85714286 C14.3604068,7.85714286 15,8.49673607 15,9.28571429 C15,10.0746925 14.3604068,10.7142857 13.5714286,10.7142857 L10.7142857,10.7142857 L10.7142857,13.5714286 C10.7142857,14.3604068 10.0746925,15 9.28571429,15 C8.49673607,15 7.85714286,14.3604068 7.85714286,13.5714286 L7.85714286,10.7142857 L5,10.7142857 C4.21102179,10.7142857 3.57142857,10.0746925 3.57142857,9.28571429 C3.57142857,8.49673607 4.21102179,7.85714286 5,7.85714286 Z" id="Shape"></path>
                <path d="M21.4285714,21.4285714 L40,21.4285714 L40,34.2857143 C40,37.4416271 37.4416271,40 34.2857143,40 L21.4285714,40 L21.4285714,21.4285714 Z M33.5714286,35 C34.3604068,35 35,34.3604068 35,33.5714286 C35,32.7824504 34.3604068,32.1428571 33.5714286,32.1428571 L27.8571429,32.1428571 C27.0681646,32.1428571 26.4285714,32.7824504 26.4285714,33.5714286 C26.4285714,34.3604068 27.0681646,35 27.8571429,35 L33.5714286,35 Z M33.5714286,29.2857143 C34.3604068,29.2857143 35,28.6461211 35,27.8571429 C35,27.0681646 34.3604068,26.4285714 33.5714286,26.4285714 L27.8571429,26.4285714 C27.0681646,26.4285714 26.4285714,27.0681646 26.4285714,27.8571429 C26.4285714,28.6461211 27.0681646,29.2857143 27.8571429,29.2857143 L33.5714286,29.2857143 Z" id="Combined-Shape" opacity="0.5"></path>
            </g>
        </g>
    </g>
</svg>