<?xml version="1.0" encoding="UTF-8"?>
<svg width="200px" height="209px" viewBox="0 0 200 209" version="1.1" xmlns="http://www.w3.org/2000/svg" xmlns:xlink="http://www.w3.org/1999/xlink">
    <!-- Generator: sketchtool 55.2 (78181) - https://sketchapp.com -->
    <title>A2D0CC84-5668-42D9-9445-A00D4D33C95F@3x</title>
    <desc>Created with sketchtool.</desc>
    <g id="DISCOVERY" stroke="none" stroke-width="1" fill="none" fill-rule="evenodd">
        <g id="Walkthrough-1" transform="translate(-88.000000, -200.000000)">
            <g id="NoLateFees_Illustration" transform="translate(88.000000, 200.000000)">
                <ellipse id="Oval" fill="#F2F2F2" fill-rule="nonzero" cx="101.002668" cy="195.874396" rx="74.0554156" ry="13.1256039"></ellipse>
                <path d="M39.2855793,72.2426169 C39.2855793,53.1206036 67.2660907,37.6191494 101.781801,37.6191494 C136.297511,37.6191494 164.278023,53.1206036 164.278023,72.2426169" id="Path" stroke-opacity="0.25" stroke="#505050" stroke-width="1.06666667"></path>
                <path d="M121.432584,50.9502472 L70.5885668,50.9502472 C60.5323535,33.9668314 60.5323535,16.9834157 70.5885668,0 L121.432584,0 C107.371649,16.9834157 107.371649,33.9668314 121.432584,50.9502472 Z" id="Path" fill="#E6E6E6" fill-rule="nonzero"></path>
                <rect id="Rectangle" fill="#A8CC11" fill-rule="nonzero" x="77.852" y="6.06550562" width="28.650199" height="3.63930337" rx="1.81791039"></rect>
                <rect id="Rectangle" fill-opacity="0.25" fill="#505050" fill-rule="nonzero" x="68.5709496" y="17.9943346" width="37.9312494" height="1.21310112" rx="0.60597013"></rect>
                <rect id="Rectangle" fill-opacity="0.25" fill="#505050" fill-rule="nonzero" x="68.5709496" y="24.2620225" width="37.9312494" height="1.21310112" rx="0.60597013"></rect>
                <rect id="Rectangle" fill-opacity="0.25" fill="#505050" fill-rule="nonzero" x="68.5709496" y="30.5297129" width="37.9312494" height="1.21310112" rx="0.60597013"></rect>
                <path d="M141.732136,163.73168 C141.732136,179.890341 151.848096,192.965724 164.349476,192.965724" id="Path" fill="#A8CC11" fill-rule="nonzero"></path>
                <path d="M164.349476,192.965724 C164.349476,176.625506 175.6383,163.40321 189.589116,163.40321" id="Path" fill="#B7E22D" fill-rule="nonzero"></path>
                <path d="M149.926826,165.19649 C149.926826,180.545501 156.377582,192.965724 164.349476,192.965724" id="Path" fill="#B7E22D" fill-rule="nonzero"></path>
                <path d="M164.349476,192.965724 C164.349476,172.086556 177.397587,155.1914 193.522567,155.1914" id="Path" fill="#A8CC11" fill-rule="nonzero"></path>
                <path d="M159.59137,193.171829 C159.59137,193.171829 162.798882,193.072834 163.765544,192.383049 C164.732207,191.693263 168.699504,190.869619 168.93931,191.975885 C169.179116,193.082151 173.759605,197.477946 170.13834,197.507216 C166.517076,197.536486 161.724134,196.94197 160.75933,196.353044 C159.794526,195.764118 159.59137,193.171829 159.59137,193.171829 Z" id="Path" fill="#A8A8A8" fill-rule="nonzero"></path>
                <path d="M170.202965,197.122121 C166.5817,197.151401 161.788761,196.55688 160.823957,195.967949 C160.089196,195.51945 159.796418,193.910124 159.698451,193.167652 C159.630607,193.170575 159.591373,193.171834 159.591373,193.171834 C159.591373,193.171834 159.794529,195.764118 160.759332,196.353049 C161.724136,196.94198 166.517076,197.536499 170.13834,197.507219 C171.183657,197.49877 171.544725,197.126087 171.524902,196.574107 C171.379683,196.907591 170.981008,197.115836 170.202965,197.122121 Z" id="Path" fill="#000000" fill-rule="nonzero" opacity="0.2"></path>
                <path d="M90.1334257,39.8012911 C90.4278841,39.9365858 90.7820856,39.7349058 90.95567,39.4608432 C91.6166423,38.4172492 90.3997078,37.0715946 90.6632116,35.864087 C90.8743199,34.8966947 91.9712997,34.3225176 92.1955919,33.3581063 C92.4135264,32.421024 91.7419899,31.3647814 92.1958816,30.51687 C92.5514811,29.8525857 93.439733,29.6777779 94.1829698,29.7941515 C94.9262065,29.9105251 95.6316625,30.2379332 96.3825214,30.2838072 C97.3830579,30.3449372 98.3368086,29.9035686 99.3151587,29.6848834 C100.293509,29.4661982 101.486861,29.55182 102.062408,30.37423 C102.801418,31.4302151 102.051771,32.9006386 102.309091,34.1643768 C102.513421,35.1678696 103.351751,35.9987885 103.369763,37.0228002 C103.376164,37.3867631 102.421355,37.0935598 102.472106,37.4540091 C102.522856,37.8144583 102.071574,37.4970838 102.432307,37.4542615 C102.734583,37.3800684 102.954167,37.1183456 102.975191,36.807197 C103.018083,36.5069766 103.581098,36.4069014 103.574602,36.1036873 C103.55938,35.3930772 104.841451,35.8722097 105.052589,35.1936564 C105.538153,33.6118156 105.438525,31.9075972 104.771967,30.3933908 C104.484436,29.7469549 104.092861,29.1351604 103.954141,28.4411945 C103.765798,27.4989857 104.062149,26.4875115 103.751509,25.5784019 C103.332869,24.3532479 101.947622,23.7287014 100.661549,23.6018525 C99.3754761,23.4750037 98.0685592,23.7020615 96.7898237,23.5150216 C95.6442947,23.3474582 94.5352947,22.8499549 93.379864,22.9220371 C91.9934534,23.0085298 90.7870025,23.9036809 89.8259597,24.9087664 C88.8649169,25.9138519 88.0496725,27.0698491 86.9582015,27.9308837 C86.6240449,28.161304 86.3157427,28.4272715 86.0386751,28.7241447 C85.4827557,29.4030161 85.4263728,30.370108 85.5810202,31.2345073 C85.7356675,32.0989066 86.0721713,32.9234469 86.2142544,33.7900094 C86.3477783,34.6043774 86.3065869,35.4363791 86.3640982,36.2596422 C86.4216096,37.0829053 86.592136,37.9311374 87.0869345,38.5908555 C87.4883878,39.136959 88.118763,39.4669798 88.7953854,39.4852821 C89.0267254,39.4906257 89.2221159,39.2823199 89.4556071,39.3366371 C89.7474736,39.4045319 89.8743778,39.6822722 90.1334257,39.8012911 Z" id="Path" fill="#2F2E41" fill-rule="nonzero"></path>
                <polygon id="Path" fill="#A0616A" fill-rule="nonzero" points="80.2382872 99.6301486 81.0957179 104.908661 82.8108312 102.576089 81.8307305 99.0162742"></polygon>
                <path d="M81.340801,59.7342723 L79.990539,63.2999915 C79.990539,63.2999915 78.6457935,81.4621345 78.6457935,82.8124638 C78.6457935,84.1627931 79.625796,101.471413 79.9932972,102.207952 C79.9932972,102.207952 81.585801,99.8755822 83.6683073,100.243851 C85.7508136,100.61212 84.8933098,94.1060388 84.8933098,94.1060388 L86.8533149,78.0249679 L86.4858086,69.9230551 L81.340801,59.7342723 Z" id="Path" fill="#575A89" fill-rule="nonzero"></path>
                <path d="M81.340801,59.7342723 L79.990539,63.2999915 C79.990539,63.2999915 78.6457935,81.4621345 78.6457935,82.8124638 C78.6457935,84.1627931 79.625796,101.471413 79.9932972,102.207952 C79.9932972,102.207952 81.585801,99.8755822 83.6683073,100.243851 C85.7508136,100.61212 84.8933098,94.1060388 84.8933098,94.1060388 L86.8533149,78.0249679 L86.4858086,69.9230551 L81.340801,59.7342723 Z" id="Path" fill="#00BABA" fill-rule="nonzero"></path>
                <path d="M89.6708212,40.0932727 C89.6708212,40.0932727 93.7133325,50.4047976 91.3858262,52.3688978 C89.0583199,54.332998 104.370859,49.0544783 104.370859,49.0544783 L104.003353,47.7041591 C104.003353,47.7041591 98.9808413,45.7400589 101.430846,40.0932727 C103.880851,34.4464864 89.6708212,40.0932727 89.6708212,40.0932727 Z" id="Path" fill="#A0616A" fill-rule="nonzero"></path>
                <path d="M89.6708212,40.0932727 C89.6708212,40.0932727 93.7133325,50.4047976 91.3858262,52.3688978 C89.0583199,54.332998 104.370859,49.0544783 104.370859,49.0544783 L104.003353,47.7041591 C104.003353,47.7041591 98.9808413,45.7400589 101.430846,40.0932727 C103.880851,34.4464864 89.6708212,40.0932727 89.6708212,40.0932727 Z" id="Path" fill="#000000" fill-rule="nonzero" opacity="0.1"></path>
                <path d="M83.300806,177.825797 C83.300806,177.825797 81.585801,177.334771 80.6057985,178.562346 C79.625796,179.78992 75.9507884,182.858815 75.9507884,182.858815 C75.9507884,182.858815 68.8457683,182.122267 67.8657657,185.682208 C66.8857632,189.24215 79.0132947,189.242142 81.9533023,188.382847 C84.8933098,187.523551 85.5058111,188.382847 85.5058111,188.382847 C85.5058111,188.382847 94.5708338,189.119395 94.5708338,187.646298 C94.5708338,186.173202 93.7133325,181.140217 93.7133325,181.140217 L83.300806,177.825797 Z" id="Path" fill="#505050" fill-rule="nonzero"></path>
                <path d="M164.278013,72.2426169 C164.278013,92.2907147 136.297504,108.542895 101.781791,108.542895 C67.2660781,108.542895 39.2855693,92.2907072 39.2855693,72.2426169" id="Path" stroke-opacity="0.25" stroke="#505050" stroke-width="1.06666667"></path>
                <path d="M152.910176,109.058101 C138.940637,116.608057 120.713023,121.176819 100.773793,121.176819 C81.6562191,121.176819 64.1121033,116.976843 50.3858841,109.976163" id="Path" stroke-opacity="0.25" stroke="#505050" stroke-width="1.06666667"></path>
                <path d="M112.088378,186.050465 L110.495872,190.960703 C110.495872,190.960703 105.718353,197.589559 108.41337,198.939873 C111.108388,200.290188 120.663401,201.640512 120.663401,198.080578 L120.663401,191.328984 C120.663401,191.328984 119.683398,186.541491 118.703395,186.050472 C117.723393,185.559454 112.088378,186.050465 112.088378,186.050465 Z" id="Path" fill="#505050" fill-rule="nonzero"></path>
                <path d="M85.0356196,97.8338567 C85.0356196,97.8338567 79.8707985,102.330696 79.9933023,102.944477 C80.115806,103.558258 82.5658035,142.963017 82.5658035,142.963017 L83.9133149,168.49632 C83.9133149,168.49632 82.1983098,174.51138 83.0558136,175.861697 C83.9133174,177.212014 81.8308086,177.580283 81.8308086,177.580283 C81.8308086,177.580283 90.6508312,185.559441 94.3258413,182.122264 L97.7558514,137.561743 L107.188378,169.969396 C107.188378,169.969396 108.780882,187.155272 110.618385,187.155272 C112.455889,187.155272 119.928411,187.523546 119.805909,186.541491 C119.683408,185.559436 120.173416,178.071309 119.315907,173.652082 C118.458398,169.232856 112.700892,134.247323 112.700892,134.247323 C112.700892,134.247323 112.205912,104.254844 113.494655,101.451427 C114.783398,98.6480101 112.82339,95.7018572 112.82339,95.7018572 L104.24837,92.3874378 L93.9583426,93.6150023 L85.0356196,97.8338567 Z" id="Path" fill="#2F2E41" fill-rule="nonzero"></path>
                <ellipse id="Oval" fill="#A0616A" fill-rule="nonzero" cx="95.4283375" cy="35.6740459" rx="8.57502267" ry="8.59293908"></ellipse>
                <path d="M116.25339,54.2102408 C115.393009,51.7706893 113.368582,49.9264609 110.863375,49.3000029 C108.392408,48.6771476 105.975442,47.8561254 103.635859,46.8448789 C103.635859,46.8448789 94.938335,51.0185912 93.2233325,51.0185912 C91.50833,51.0185912 91.5083275,49.9137839 91.5083275,49.9137839 C91.5083275,49.9137839 87.0983149,54.5785225 84.7708086,55.0695488 C82.4433023,55.5605751 79.0132947,61.3301161 80.2382972,64.5217808 C81.0703188,66.5679773 82.274987,68.4411898 83.790806,70.0457947 C83.790806,70.0457947 83.300806,87.2316703 84.8933098,90.4233325 C84.8933098,90.4233325 80.9732997,97.9114643 84.6483098,98.4024906 C88.3233199,98.8935169 102.410854,97.1749286 104.860861,98.8935144 C107.310869,100.6121 111.843378,98.5252403 112.455879,100.857615 C113.06838,103.189989 114.415884,103.68101 114.415884,103.68101 C114.415884,103.68101 116.49839,100.366591 115.273388,98.4024982 C114.048385,96.4384056 116.25339,54.2102408 116.25339,54.2102408 Z" id="Path" fill="#6DDDDB" fill-rule="nonzero"></path>
                <path d="M107.188378,100.366596 L105.228373,101.594158 C105.228373,101.594158 107.310877,108.836778 108.16838,109.08229 C109.025884,109.327802 111.044297,102.889418 111.044297,102.889418 L107.188378,100.366596 Z" id="Path" fill="#A0616A" fill-rule="nonzero"></path>
                <path d="M88.6634232,38.9419982 C88.9578816,39.0772929 89.3120806,38.8756129 89.485665,38.6015478 C90.1466398,37.5579563 88.9297028,36.2122992 89.1932217,35.0047916 C89.4043275,34.0373992 90.5013098,33.4632247 90.7255995,32.4988109 C90.9435365,31.5617311 90.272,30.505486 90.7258917,29.6575771 C91.0814912,28.9932928 91.9697431,28.8184825 92.7129798,28.9348561 C93.4562166,29.0512297 94.16167,29.3786378 94.9125315,29.4245143 C95.9130655,29.4856418 96.8668161,29.0442731 97.8451662,28.8255905 C98.8235164,28.6069078 100.016872,28.6925246 100.592418,29.5149371 C101.331428,30.5709197 100.581778,32.0413432 100.839098,33.3050814 C101.043428,34.3085767 103.371466,35.0129244 103.582602,34.3343635 C104.068167,32.7525237 103.968539,31.0483057 103.30198,29.5341005 C103.014451,28.8876645 102.622887,28.27587 102.484156,27.5819042 C102.295814,26.6396953 102.592161,25.6282211 102.281524,24.7191115 C101.862884,23.4939576 100.477635,22.869411 99.1915642,22.7425622 C97.9054937,22.6157133 96.5985718,22.8427711 95.3198388,22.6557313 C94.1743098,22.4881653 93.0653098,21.9906645 91.9098766,22.0627468 C90.523466,22.1492394 89.3170176,23.0443905 88.3559723,24.0494735 C87.394927,25.0545565 86.5796851,26.2105587 85.4882141,27.0715908 C85.1540574,27.302012 84.8457552,27.5679803 84.5686877,27.8648543 C84.0127683,28.5437257 83.9563829,29.5108177 84.1110327,30.3752169 C84.2656826,31.2396162 84.6021839,32.0641565 84.7442645,32.930719 C84.8777909,33.7450845 84.836597,34.5770862 84.8941083,35.4003518 C84.9516196,36.2236175 85.1221486,37.071847 85.6169471,37.7315626 C86.0184002,38.2776667 86.6487752,38.6076884 87.325398,38.6259917 C87.5567355,38.6313354 87.7521259,38.423027 87.9856171,38.4773468 C88.277471,38.545239 88.4043753,38.8229793 88.6634232,38.9419982 Z" id="Path" fill="#2F2E41" fill-rule="nonzero"></path>
                <path d="M111.414627,56.3584756 L115.395887,54.2102408 C115.395887,54.2102408 125.073413,77.2884196 122.745907,83.671744 C120.418401,90.0550685 111.475882,103.189989 111.475882,103.189989 C111.475882,103.189989 104.370864,101.716915 105.105856,100.243839 C105.840849,98.7707623 110.61837,89.3185404 110.985872,88.0909683 C111.353373,86.8633962 113.803378,78.8842507 112.700877,78.0249553 C111.598375,77.1656599 109.454625,57.217771 109.454625,57.217771 L111.414627,56.3584756 Z" id="Path" fill="#000000" fill-rule="nonzero" opacity="0.1"></path>
                <path d="M111.353378,52.8599216 L116.253378,54.2102408 C116.253378,54.2102408 125.930902,77.2884196 123.603395,83.671744 C121.275889,90.0550685 112.33337,103.189989 112.33337,103.189989 C112.33337,103.189989 105.228353,101.716915 105.963345,100.243839 C106.698338,98.7707623 111.475859,89.3185404 111.84336,88.0909683 C112.210861,86.8633962 114.660869,78.8842507 113.558365,78.0249553 C112.455861,77.1656599 107.18834,55.9288291 107.18834,55.9288291 L111.353378,52.8599216 Z" id="Path" fill="#6DDDDB" fill-rule="nonzero"></path>
                <path d="M132.991904,28.2467337 C159.577348,35.2489909 178.5113,50.6515261 180.271942,68.7922945" id="Path" stroke-opacity="0.25" stroke="#505050" stroke-width="1.06666667"></path>
                <path d="M24.9781436,57.001201 C29.4576423,48.7508705 37.6408942,41.4902484 48.3626348,35.9122554" id="Path" stroke-opacity="0.25" stroke="#505050" stroke-width="1.06666667"></path>
                <path d="M79.9389899,145.317301 L130.783005,145.317301 C140.839212,128.333885 140.839212,111.35047 130.783005,94.367054 L79.9389899,94.367054 C93.9999253,111.35047 93.9999253,128.333885 79.9389899,145.317301 Z" id="Path" fill="#F2F2F2" fill-rule="nonzero"></path>
                <rect id="Rectangle" fill="#A8CC11" fill-rule="nonzero" x="96.7621965" y="104.071863" width="28.650199" height="3.63930337" rx="1.81791039"></rect>
                <rect id="Rectangle" fill-opacity="0.25" fill="#505050" fill-rule="nonzero" x="94.5428136" y="114.989773" width="37.9312494" height="1.21310112" rx="0.60597013"></rect>
                <rect id="Rectangle" fill-opacity="0.25" fill="#505050" fill-rule="nonzero" x="94.5428136" y="121.257461" width="37.9312494" height="1.21310112" rx="0.60597013"></rect>
                <path d="M58.3861688,110.734561 L7.54215365,110.734561 C-2.5140529,93.7511451 -2.5140529,76.7677294 7.54215365,59.7843137 L58.3861688,59.7843137 C44.3252368,76.7677294 44.3252368,93.7511451 58.3861688,110.734561 Z" id="Path" fill="#F2F2F2" fill-rule="nonzero"></path>
                <rect id="Rectangle" fill="#A8CC11" fill-rule="nonzero" x="13.1914912" y="65.8498193" width="28.650199" height="3.63930337" rx="1.81791039"></rect>
                <rect id="Rectangle" fill-opacity="0.25" fill="#505050" fill-rule="nonzero" x="6.93686902" y="75.9589953" width="37.9312494" height="1.21310112" rx="0.60597013"></rect>
                <rect id="Rectangle" fill-opacity="0.25" fill="#505050" fill-rule="nonzero" x="6.93686902" y="82.2266857" width="37.9312494" height="1.21310112" rx="0.60597013"></rect>
                <rect id="Rectangle" fill-opacity="0.25" fill="#505050" fill-rule="nonzero" x="6.93686902" y="88.4943736" width="37.9312494" height="1.21310112" rx="0.60597013"></rect>
                <rect id="Rectangle" fill-opacity="0.25" fill="#505050" fill-rule="nonzero" x="6.93686902" y="94.762064" width="37.9312494" height="1.21310112" rx="0.60597013"></rect>
                <path d="M141.507967,87.2651129 L192.351982,87.2651129 C202.408189,70.2816971 202.408189,53.2982814 192.351982,36.3148657 L141.507967,36.3148657 C155.568899,53.2982814 155.568899,70.2816971 141.507967,87.2651129 Z" id="Path" fill="#F2F2F2" fill-rule="nonzero"></path>
                <rect id="Rectangle" fill="#A8CC11" fill-rule="nonzero" x="157.725887" y="41.369455" width="28.650199" height="3.63930337" rx="1.81791039"></rect>
                <rect id="Rectangle" fill-opacity="0.25" fill="#505050" fill-rule="nonzero" x="154.699456" y="51.478631" width="37.9312494" height="1.21310112" rx="0.60597013"></rect>
            </g>
        </g>
    </g>
</svg>